<svg width="24" height="24" viewBox="0 0 24 24" fill="none" xmlns="http://www.w3.org/2000/svg">
<path d="M19.1841 7.80499L16.2191 4.83799C14.1921 2.80799 13.1791 1.79499 12.0901 2.03499C11.0021 2.27499 10.5091 3.62199 9.52212 6.31499L8.85412 8.13799C8.59112 8.85599 8.45912 9.21499 8.22212 9.49299C8.11592 9.61775 7.99505 9.72922 7.86212 9.82499C7.56612 10.038 7.19812 10.139 6.46212 10.342C4.80212 10.8 3.97112 11.029 3.65812 11.572C3.52272 11.807 3.45231 12.0738 3.45412 12.345C3.45812 12.972 4.06712 13.581 5.28412 14.8L6.70012 16.216L2.22412 20.696C2.08773 20.8406 2.01305 21.0326 2.01595 21.2314C2.01885 21.4301 2.09909 21.6199 2.23964 21.7605C2.38019 21.901 2.56998 21.9813 2.76873 21.9842C2.96748 21.9871 3.15953 21.9124 3.30412 21.776L7.77912 17.296L9.24512 18.764C10.4711 19.99 11.0841 20.604 11.7151 20.604C11.9801 20.604 12.2411 20.536 12.4721 20.404C13.0201 20.091 13.2501 19.255 13.7111 17.582C13.9131 16.847 14.0141 16.48 14.2261 16.183C14.3191 16.054 14.4271 15.936 14.5481 15.831C14.8231 15.593 15.1801 15.459 15.8931 15.191L17.7371 14.498C20.4011 13.498 21.7331 12.997 21.9671 11.912C22.2021 10.826 21.1971 9.81899 19.1841 7.80499Z" fill="#F7F7F7"/>
</svg>
